<svg width="0" height="0" class="hidden">
  <symbol  xmlns="http://www.w3.org/2000/svg" viewBox="0 0 40 33" id="ant-media-light">
    <path d="M8.24729 12.3672C8.19932 12.3205 3.03691 10.983 2.18422 7.25814C2.32648 4.48822 10.4315 2.14911 20.0045 2.14911C29.6256 2.14911 37.6826 4.48822 37.8737 7.25814C36.9722 10.9347 31.8536 12.3205 31.8106 12.3672C31.5784 12.4232 31.3724 12.5581 31.2274 12.7492C31.0823 12.9403 31.007 13.1759 31.0142 13.4163V31.9058C31.016 32.1807 31.124 32.4441 31.3153 32.6401C31.5066 32.8361 31.7661 32.9493 32.0389 32.9558C34.6457 32.9075 36.825 32.2892 38.2003 30.9025C39.2922 29.8304 39.936 28.3783 40 26.8435V7.35481C39.9992 2.29244 29.6206 0 19.9996 0C10.3786 0 0 2.29244 0 7.35481V26.8368C0.0861077 28.4037 0.744168 29.8833 1.84762 30.9909C3.17502 32.3325 5.11858 32.9991 7.59144 32.9991C7.71921 33.0041 7.84691 32.9877 7.9694 32.9508C8.2459 32.9493 8.51067 32.838 8.70634 32.6412C8.90201 32.4444 9.01283 32.1778 9.01478 31.8992V13.4122C9.01638 13.178 8.94262 12.9496 8.80455 12.7612C8.66648 12.5728 8.47154 12.4345 8.24894 12.3672H8.24729ZM6.87191 14.1821V30.8C5.57915 30.8048 4.32983 30.3302 3.36194 29.4667C2.64469 28.7737 2.20624 27.8385 2.13047 26.8401V11.2689C3.48523 12.5714 5.10231 13.565 6.87191 14.1821ZM37.8671 26.8368C37.8671 27.2176 37.6768 30.42 33.1264 30.7992V14.1821C34.897 13.5661 36.5143 12.5711 37.8671 11.2655V26.8368Z" fill="inherit"></path>
    <path d="M26.113 18.7186L17.7243 13.8954C17.3656 13.6286 16.9375 13.4728 16.4924 13.4469C16.0473 13.421 15.6043 13.5262 15.2175 13.7496C14.8306 13.973 14.5167 14.305 14.3139 14.7051C14.1111 15.1052 14.0282 15.5561 14.0754 16.0028V25.6967C14.0431 26.1406 14.132 26.5849 14.3324 26.9816C14.5329 27.3782 14.8373 27.7119 15.2126 27.9467C15.526 28.141 15.8884 28.2403 16.2563 28.2325C16.7739 28.2178 17.2792 28.0701 17.7243 27.8033L26.113 22.981C26.522 22.7975 26.8695 22.4985 27.1133 22.1202C27.3572 21.7419 27.487 21.3005 27.487 20.8493C27.487 20.3982 27.3572 19.9568 27.1133 19.5785C26.8695 19.2002 26.522 18.9012 26.113 18.7177V18.7186ZM25.023 21.106L16.6343 25.9284C16.444 26.0717 16.3034 26.0717 16.3034 26.1184C16.2264 25.9895 16.1933 25.8388 16.2092 25.6892V15.997C16.2092 15.6637 16.2092 15.6145 16.2571 15.6145C16.396 15.6171 16.5297 15.6683 16.6351 15.7595L25.0238 20.5819C25.2603 20.7252 25.3075 20.8202 25.3546 20.8202C25.3546 20.8685 25.2587 20.9635 25.0238 21.106H25.023Z" fill="inherit"></path>
    <path d="M22.6783 4.55912L19.4222 7.29238C14.6809 6.5348 9.85069 6.5348 5.10938 7.29238C10.6714 5.00367 16.6902 4.0673 22.6783 4.55912Z" fill="inherit"></path>
    <path d="M26.9194 5.13144L22.8859 8.1422C22.2882 7.94944 21.6809 7.78839 21.0664 7.65971L24.5317 4.73895C25.3067 4.85978 26.1139 4.98311 26.9194 5.13144Z" fill="inherit"></path>
    <path d="M30.8293 6.18495L26.2276 9.39986C25.6291 9.09535 25.0101 8.83387 24.375 8.61739L28.5888 5.51663H28.6194C29.3406 5.70413 30.0849 5.91412 30.8293 6.18495Z" fill="inherit"></path>
    <path d="M34.5958 7.6297L28.9496 10.8796C28.5084 10.58 28.049 10.3084 27.5742 10.0663L32.3603 6.69055C33.1022 6.96721 33.849 7.29804 34.5958 7.6297Z" fill="inherit"></path>
  </symbol>

  <symbol xmlns="http://www.w3.org/2000/svg"  viewBox="0 0 17 22" id="microphone" >
    <path d="M8.05744 13.2289C7.22761 13.2289 6.53288 12.9298 5.97323 12.3316C5.41358 11.7333 5.13375 11.0096 5.13375 10.1605V2.89474C5.13375 2.08421 5.4184 1.39912 5.9877 0.839474C6.557 0.279824 7.24691 0 8.05744 0C8.86796 0 9.55788 0.279824 10.1272 0.839474C10.6965 1.39912 10.9811 2.08421 10.9811 2.89474V10.1605C10.9811 11.0096 10.7013 11.7333 10.1416 12.3316C9.582 12.9298 8.88726 13.2289 8.05744 13.2289ZM8.05744 22C7.80656 22 7.5991 21.918 7.43507 21.7539C7.27103 21.5899 7.18902 21.3825 7.18902 21.1316V18.0632C5.29779 17.8509 3.68156 17.0934 2.34033 15.7908C0.999103 14.4882 0.222349 12.9202 0.0100687 11.0868C-0.0285278 10.836 0.0438406 10.6189 0.227174 10.4355C0.410507 10.2522 0.637261 10.1605 0.907437 10.1605C1.11972 10.1605 1.30305 10.2377 1.45744 10.3921C1.61182 10.5465 1.70831 10.7298 1.74691 10.9421C1.95919 12.5053 2.65393 13.8031 3.83112 14.8355C5.00831 15.868 6.41709 16.3842 8.05744 16.3842C9.69779 16.3842 11.1066 15.868 12.2838 14.8355C13.4609 13.8031 14.1557 12.5053 14.368 10.9421C14.4066 10.7298 14.5079 10.5465 14.6719 10.3921C14.8359 10.2377 15.0241 10.1605 15.2364 10.1605C15.5066 10.1605 15.7285 10.2522 15.9022 10.4355C16.0759 10.6189 16.1434 10.836 16.1048 11.0868C15.8925 12.9202 15.1158 14.4882 13.7745 15.7908C12.4333 17.0934 10.8171 17.8509 8.92586 18.0632V21.1316C8.92586 21.3825 8.84384 21.5899 8.67981 21.7539C8.51577 21.918 8.30831 22 8.05744 22ZM8.05744 11.4921C8.40481 11.4921 8.68945 11.3618 8.91138 11.1013C9.13331 10.8408 9.24428 10.5272 9.24428 10.1605V2.89474C9.24428 2.56667 9.12849 2.29167 8.89691 2.06974C8.66533 1.84781 8.38551 1.73684 8.05744 1.73684C7.72937 1.73684 7.44954 1.84781 7.21796 2.06974C6.98638 2.29167 6.87059 2.56667 6.87059 2.89474V10.1605C6.87059 10.5272 6.98156 10.8408 7.20349 11.1013C7.42542 11.3618 7.71007 11.4921 8.05744 11.4921Z" fill="inherit"/>
  </symbol>

  <symbol xmlns="http://www.w3.org/2000/svg"  viewBox="0 0 22 22" id="muted-microphone">
    <path d="M17.2211 13.9755L16.0632 12.8176C16.3684 12.4406 16.6063 12.0277 16.7768 11.5789C16.9473 11.1302 17.0595 10.6634 17.1134 10.1787C17.1493 9.98123 17.2436 9.81069 17.3961 9.66708C17.5487 9.52346 17.7238 9.45165 17.9212 9.45165C18.1726 9.45165 18.379 9.53692 18.5406 9.70747C18.7021 9.87801 18.765 10.08 18.7291 10.3133C18.6393 10.9776 18.4688 11.6238 18.2174 12.2521C17.9661 12.8805 17.634 13.4549 17.2211 13.9755ZM13.7744 10.5288L12.3472 9.12852V2.71971C12.3472 2.41453 12.2395 2.15422 12.024 1.9388C11.8086 1.72338 11.5483 1.61567 11.2431 1.61567C10.938 1.61567 10.6777 1.72338 10.4622 1.9388C10.2468 2.15422 10.1391 2.41453 10.1391 2.71971V6.89351L8.52344 5.27785V2.71971C8.52344 1.96573 8.78823 1.32395 9.31781 0.79437C9.84738 0.26479 10.4892 0 11.2431 0C11.9971 0 12.6389 0.26479 13.1685 0.79437C13.6981 1.32395 13.9628 1.96573 13.9628 2.71971V9.45165C13.9628 9.59527 13.9494 9.77479 13.9225 9.99021C13.8955 10.2056 13.8462 10.3851 13.7744 10.5288ZM20.4524 21.7577L14.7168 16.022C14.3039 16.2195 13.8731 16.3856 13.4243 16.5202C12.9755 16.6548 12.5177 16.7491 12.051 16.8029V19.6573C12.051 19.8907 11.9747 20.0836 11.8221 20.2362C11.6695 20.3888 11.4765 20.4651 11.2431 20.4651C11.0098 20.4651 10.8168 20.3888 10.6642 20.2362C10.5116 20.0836 10.4353 19.8907 10.4353 19.6573V16.8029C8.67603 16.6234 7.17256 15.9278 5.9249 14.716C4.67725 13.5043 3.95469 12.0367 3.75722 10.3133C3.72131 10.08 3.78863 9.87801 3.95918 9.70747C4.12972 9.53692 4.34065 9.45165 4.59198 9.45165C4.78945 9.45165 4.95999 9.52346 5.10361 9.66708C5.24722 9.81069 5.33698 9.98123 5.37289 10.1787C5.57036 11.6149 6.21662 12.8176 7.31169 13.787C8.40675 14.7564 9.71723 15.2411 11.2431 15.2411C11.674 15.2411 12.0824 15.2052 12.4684 15.1334C12.8543 15.0616 13.2448 14.927 13.6397 14.7295L0.20275 1.31946C0.0591355 1.17585 -0.00818393 1.0053 0.000791994 0.807834C0.00976792 0.610363 0.0860633 0.439821 0.229678 0.296206C0.373293 0.152591 0.543836 0.0807834 0.741306 0.0807834C0.938776 0.0807834 1.10932 0.152591 1.25293 0.296206L21.5834 20.6267C21.745 20.7883 21.8258 20.9767 21.8258 21.1922C21.8258 21.4076 21.745 21.5961 21.5834 21.7577C21.4218 21.9192 21.2333 22 21.0179 22C20.8025 22 20.614 21.9192 20.4524 21.7577Z" fill="inherit"/>
  </symbol>
  <symbol xmlns="http://www.w3.org/2000/svg"  viewBox="0 0 18 20" id="voice-indicator">
    <path d="M4.74949 15.1394C4.90598 15.2959 5.10454 15.3722 5.33333 15.3722C5.56213 15.3722 5.76069 15.2959 5.91718 15.1394C6.07367 14.9829 6.15 14.7844 6.15 14.5556V5.22222C6.15 4.99342 6.07367 4.79487 5.91718 4.63838C5.76069 4.48189 5.56213 4.40556 5.33333 4.40556C5.10454 4.40556 4.90598 4.48189 4.74949 4.63838C4.593 4.79487 4.51667 4.99342 4.51667 5.22222V14.5556C4.51667 14.7844 4.593 14.9829 4.74949 15.1394ZM8.41616 18.695C8.57265 18.8514 8.7712 18.9278 9 18.9278C9.2288 18.9278 9.42736 18.8514 9.58384 18.695C9.74033 18.5385 9.81667 18.3399 9.81667 18.1111V1.66667C9.81667 1.43787 9.74033 1.23931 9.58384 1.08282C9.42736 0.926334 9.2288 0.85 9 0.85C8.7712 0.85 8.57265 0.926334 8.41616 1.08282C8.25967 1.23931 8.18333 1.43787 8.18333 1.66667V18.1111C8.18333 18.3399 8.25967 18.5385 8.41616 18.695ZM1.08282 11.5838C1.23931 11.7403 1.43787 11.8167 1.66667 11.8167C1.89546 11.8167 2.09402 11.7403 2.25051 11.5838C2.407 11.4274 2.48333 11.2288 2.48333 11V8.77778C2.48333 8.54898 2.407 8.35042 2.25051 8.19393C2.09402 8.03744 1.89546 7.96111 1.66667 7.96111C1.43787 7.96111 1.23931 8.03744 1.08282 8.19393C0.926334 8.35042 0.85 8.54898 0.85 8.77778V11C0.85 11.2288 0.926334 11.4274 1.08282 11.5838ZM12.0828 15.1394C12.2393 15.2959 12.4379 15.3722 12.6667 15.3722C12.8955 15.3722 13.094 15.2959 13.2505 15.1394C13.407 14.9829 13.4833 14.7844 13.4833 14.5556V5.22222C13.4833 4.99342 13.407 4.79487 13.2505 4.63838C13.094 4.48189 12.8955 4.40556 12.6667 4.40556C12.4379 4.40556 12.2393 4.48189 12.0828 4.63838C11.9263 4.79487 11.85 4.99342 11.85 5.22222V14.5556C11.85 14.7844 11.9263 14.9829 12.0828 15.1394ZM15.7495 11.5838C15.906 11.7403 16.1045 11.8167 16.3333 11.8167C16.5621 11.8167 16.7607 11.7403 16.9172 11.5838C17.0737 11.4274 17.15 11.2288 17.15 11V8.77778C17.15 8.54898 17.0737 8.35042 16.9172 8.19393C16.7607 8.03744 16.5621 7.96111 16.3333 7.96111C16.1045 7.96111 15.906 8.03744 15.7495 8.19393C15.593 8.35042 15.5167 8.54898 15.5167 8.77778V11C15.5167 11.2288 15.593 11.4274 15.7495 11.5838Z" fill="#003935" stroke="#003935" stroke-width="0.3"/>
  </symbol>
  <symbol xmlns="http://www.w3.org/2000/svg"  viewBox="0 0 26 22" id="camera">
    <path d="M1.95 20C1.43 20 0.975 19.8125 0.585 19.4375C0.195 19.0625 0 18.625 0 18.125V1.875C0 1.375 0.195 0.9375 0.585 0.5625C0.975 0.1875 1.43 0 1.95 0H18.85C19.37 0 19.825 0.1875 20.215 0.5625C20.605 0.9375 20.8 1.375 20.8 1.875V8.59375L25.155 4.40625C25.3067 4.26042 25.4854 4.22396 25.6912 4.29688C25.8971 4.36979 26 4.51042 26 4.71875V15.2812C26 15.4896 25.8971 15.6302 25.6912 15.7031C25.4854 15.776 25.3067 15.7396 25.155 15.5938L20.8 11.4062V18.125C20.8 18.625 20.605 19.0625 20.215 19.4375C19.825 19.8125 19.37 20 18.85 20H1.95ZM1.95 18.125H18.85V1.875H1.95V18.125ZM1.95 18.125V1.875V18.125Z" fill="inherit"/>
  </symbol>
  <symbol xmlns="http://www.w3.org/2000/svg" viewBox="0 0 26 22" id="camera-off">
    <path d="M25.1846 17.7201L20.9819 13.5175V16.9988L19.1001 15.117V3.95175H7.93486L6.05308 2.06996H19.1001C19.6019 2.06996 20.041 2.25814 20.4174 2.6345C20.7937 3.01086 20.9819 3.44994 20.9819 3.95175V10.6948L25.1846 6.49216C25.3309 6.3458 25.5034 6.30921 25.7021 6.38239C25.9007 6.45557 26 6.5967 26 6.80579V17.4065C26 17.6156 25.9007 17.7567 25.7021 17.8299C25.5034 17.9031 25.3309 17.8665 25.1846 17.7201ZM24.3378 25.655L20.3546 21.6719C20.1874 21.8183 19.994 21.9333 19.7744 22.0169C19.5549 22.1005 19.3301 22.1423 19.1001 22.1423H2.79131C2.28951 22.1423 1.85042 21.9542 1.47407 21.5778C1.09771 21.2014 0.90953 20.7624 0.90953 20.2606V3.95175C0.90953 3.70084 0.956574 3.47085 1.05066 3.26176C1.14475 3.05267 1.25452 2.8645 1.37998 2.69723L0.250905 1.56815C0.083635 1.40088 0 1.1918 0 0.940893C0 0.689988 0.0940893 0.470446 0.282268 0.282268C0.470446 0.0940894 0.689988 0 0.940893 0C1.1918 0 1.41134 0.0940894 1.59952 0.282268L25.6864 24.3691C25.8536 24.5364 25.9373 24.7455 25.9373 24.9964C25.9373 25.2473 25.8432 25.4668 25.655 25.655C25.4668 25.8432 25.2473 25.9373 24.9964 25.9373C24.7455 25.9373 24.5259 25.8432 24.3378 25.655ZM2.79131 20.2606H18.9433L2.79131 4.10856V20.2606Z" fill="inherit"/>
  </symbol>
  <symbol xmlns="http://www.w3.org/2000/svg" viewBox="0 0 4 22" id="option">
  <path d="M1.65 22C1.19167 22 0.802083 21.8396 0.481249 21.5187C0.160416 21.1979 0 20.8083 0 20.35C0 19.8917 0.160416 19.5021 0.481249 19.1813C0.802083 18.8604 1.19167 18.7 1.65 18.7C2.10833 18.7 2.49792 18.8604 2.81875 19.1813C3.13958 19.5021 3.3 19.8917 3.3 20.35C3.3 20.8083 3.13958 21.1979 2.81875 21.5187C2.49792 21.8396 2.10833 22 1.65 22ZM1.65 12.65C1.19167 12.65 0.802083 12.4896 0.481249 12.1688C0.160416 11.8479 0 11.4583 0 11C0 10.5417 0.160416 10.1521 0.481249 9.83125C0.802083 9.51042 1.19167 9.35 1.65 9.35C2.10833 9.35 2.49792 9.51042 2.81875 9.83125C3.13958 10.1521 3.3 10.5417 3.3 11C3.3 11.4583 3.13958 11.8479 2.81875 12.1688C2.49792 12.4896 2.10833 12.65 1.65 12.65ZM1.65 3.3C1.19167 3.3 0.802083 3.13958 0.481249 2.81875C0.160416 2.49792 0 2.10833 0 1.65C0 1.19167 0.160416 0.802083 0.481249 0.48125C0.802083 0.160417 1.19167 0 1.65 0C2.10833 0 2.49792 0.160417 2.81875 0.48125C3.13958 0.802083 3.3 1.19167 3.3 1.65C3.3 2.10833 3.13958 2.49792 2.81875 2.81875C2.49792 3.13958 2.10833 3.3 1.65 3.3Z"/>
  </symbol>
  <symbol xmlns="http://www.w3.org/2000/svg" viewBox="0 0 25 25" id="settings-dots">
  <path d="M14.281 25h-4.125a.931.931 0 0 1-.61-.219.919.919 0 0 1-.327-.562l-.5-3.157a8.37 8.37 0 0 1-1.25-.593 8.591 8.591 0 0 1-1.157-.782l-2.906 1.344a.929.929 0 0 1-.687.047.906.906 0 0 1-.531-.453L.124 16.969a.812.812 0 0 1-.094-.657c.063-.229.188-.416.375-.562l2.688-1.969a3.715 3.715 0 0 1-.078-.64C3.006 12.9 3 12.687 3 12.5c0-.188.005-.401.016-.64.01-.24.036-.454.078-.641L.406 9.25a1.042 1.042 0 0 1-.375-.563.812.812 0 0 1 .094-.656l2.063-3.656a.906.906 0 0 1 .53-.453.929.929 0 0 1 .688.047l2.906 1.344c.334-.271.72-.532 1.157-.782.437-.25.854-.437 1.25-.562l.5-3.188A.919.919 0 0 1 9.547.22a.931.931 0 0 1 .61-.219h4.124c.23 0 .432.073.61.219a.919.919 0 0 1 .328.562l.5 3.156c.396.146.818.339 1.265.579.448.24.828.505 1.141.796l2.906-1.343a.93.93 0 0 1 .688-.047c.229.073.406.224.531.453L24.313 8a.893.893 0 0 1 .109.672.926.926 0 0 1-.39.578l-2.688 1.906c.041.209.067.432.078.672a14.496 14.496 0 0 1 0 1.328c-.01.23-.037.448-.078.656l2.687 1.938c.188.146.313.333.375.563a.812.812 0 0 1-.093.656l-2.063 3.656a.906.906 0 0 1-.531.453.93.93 0 0 1-.688-.047l-2.906-1.343c-.333.27-.713.536-1.14.796-.428.26-.85.453-1.266.578l-.5 3.157a.918.918 0 0 1-.328.562.931.931 0 0 1-.61.219Zm-2.062-8.438c1.125 0 2.083-.395 2.875-1.187.791-.792 1.187-1.75 1.187-2.875s-.396-2.083-1.187-2.875c-.792-.792-1.75-1.188-2.875-1.188s-2.084.396-2.875 1.188c-.792.792-1.188 1.75-1.188 2.875s.396 2.083 1.188 2.875c.791.792 1.75 1.188 2.875 1.188Zm0-1.875c-.604 0-1.12-.213-1.547-.64a2.108 2.108 0 0 1-.64-1.547c0-.604.213-1.12.64-1.547.427-.427.943-.64 1.547-.64s1.12.213 1.547.64c.427.427.64.943.64 1.547s-.213 1.12-.64 1.547c-.428.427-.943.64-1.547.64Zm-1.375 8.438h2.75l.437-3.5a7.374 7.374 0 0 0 1.953-.781 8.01 8.01 0 0 0 1.672-1.282L20.97 19l1.25-2.25-2.938-2.156a13.2 13.2 0 0 0 .203-1.047c.052-.344.078-.693.078-1.047s-.02-.703-.062-1.047a6.469 6.469 0 0 0-.219-1.047L22.22 8.25 20.969 6l-3.313 1.438a6.964 6.964 0 0 0-1.625-1.36 5.27 5.27 0 0 0-2-.703l-.437-3.5h-2.75l-.438 3.5a6.621 6.621 0 0 0-1.984.75 6.893 6.893 0 0 0-1.64 1.313L3.468 6l-1.25 2.25 2.937 2.156c-.083.354-.15.703-.203 1.047a6.98 6.98 0 0 0 0 2.094c.052.344.12.693.203 1.047L2.22 16.75 3.469 19l3.312-1.438c.5.5 1.058.928 1.672 1.282a7.374 7.374 0 0 0 1.953.781l.438 3.5Z" fill="#fff"/>
  </symbol>
  <symbol xmlns="http://www.w3.org/2000/svg" viewBox="0 0 28 22" id="share-screen-off">
  <path d="M10.2773 13.8417C10.553 13.8417 10.7811 13.7551 10.9614 13.5819C11.1417 13.4088 11.2318 13.1898 11.2318 12.925V11.0917C11.2318 10.6028 11.4015 10.1954 11.7409 9.86944C12.0803 9.54352 12.5045 9.38056 13.0136 9.38056H15.5909V10.4194C15.5909 10.6231 15.6917 10.7606 15.8932 10.8319C16.0947 10.9032 16.2697 10.8676 16.4182 10.725L18.4227 8.8C18.4439 8.77963 18.497 8.66759 18.5818 8.46389C18.5818 8.42315 18.5288 8.31111 18.4227 8.12778L16.4182 6.20278C16.2697 6.06018 16.0947 6.02454 15.8932 6.09583C15.6917 6.16713 15.5909 6.30463 15.5909 6.50833V7.54722H13.0136C11.9955 7.54722 11.1258 7.89352 10.4045 8.58611C9.68333 9.2787 9.32273 10.1139 9.32273 11.0917V12.925C9.32273 13.1898 9.41288 13.4088 9.59318 13.5819C9.77349 13.7551 10.0015 13.8417 10.2773 13.8417ZM3.18182 18.3333C2.65152 18.3333 2.20076 18.1551 1.82955 17.7986C1.45833 17.4421 1.27273 17.0093 1.27273 16.5V1.83333C1.27273 1.32407 1.45833 0.891204 1.82955 0.534722C2.20076 0.178241 2.65152 0 3.18182 0H24.8182C25.3485 0 25.7992 0.178241 26.1705 0.534722C26.5417 0.891204 26.7273 1.32407 26.7273 1.83333V16.5C26.7273 17.0093 26.5417 17.4421 26.1705 17.7986C25.7992 18.1551 25.3485 18.3333 24.8182 18.3333H3.18182ZM3.18182 16.5H24.8182V1.83333H3.18182V16.5ZM0.954545 22C0.678788 22 0.450758 21.9134 0.270454 21.7403C0.0901515 21.5671 0 21.3481 0 21.0833C0 20.8185 0.0901515 20.5995 0.270454 20.4264C0.450758 20.2532 0.678788 20.1667 0.954545 20.1667H27.0455C27.3212 20.1667 27.5492 20.2532 27.7295 20.4264C27.9098 20.5995 28 20.8185 28 21.0833C28 21.3481 27.9098 21.5671 27.7295 21.7403C27.5492 21.9134 27.3212 22 27.0455 22H0.954545ZM3.18182 1.83333V16.5V1.83333Z"/>
  </symbol>
  <symbol xmlns="http://www.w3.org/2000/svg" viewBox="0 0 24 22" id="message-off">
  <path d="M5.51367 13.9583H12.8846C13.1167 13.9583 13.315 13.8761 13.4795 13.7116C13.6439 13.5472 13.7261 13.3392 13.7261 13.0877C13.7261 12.8362 13.6439 12.6282 13.4795 12.4638C13.315 12.2993 13.107 12.2171 12.8555 12.2171H5.48465C5.25249 12.2171 5.05419 12.2993 4.88975 12.4638C4.72531 12.6282 4.64309 12.8362 4.64309 13.0877C4.64309 13.3392 4.72531 13.5472 4.88975 13.7116C5.05419 13.8761 5.26217 13.9583 5.51367 13.9583ZM5.51367 10.1858H17.7308C17.9629 10.1858 18.1612 10.1036 18.3257 9.93911C18.4901 9.77466 18.5723 9.56669 18.5723 9.31519C18.5723 9.06369 18.4901 8.85572 18.3257 8.69128C18.1612 8.52684 17.9533 8.44461 17.7018 8.44461H5.48465C5.25249 8.44461 5.05419 8.52684 4.88975 8.69128C4.72531 8.85572 4.64309 9.06369 4.64309 9.31519C4.64309 9.56669 4.72531 9.77466 4.88975 9.93911C5.05419 10.1036 5.26217 10.1858 5.51367 10.1858ZM5.51367 6.41326H17.7308C17.9629 6.41326 18.1612 6.33104 18.3257 6.1666C18.4901 6.00216 18.5723 5.79419 18.5723 5.54269C18.5723 5.29118 18.4901 5.08321 18.3257 4.91877C18.1612 4.75433 17.9533 4.67211 17.7018 4.67211H5.48465C5.25249 4.67211 5.05419 4.75433 4.88975 4.91877C4.72531 5.08321 4.64309 5.29118 4.64309 5.54269C4.64309 5.79419 4.72531 6.00216 4.88975 6.1666C5.05419 6.33104 5.26217 6.41326 5.51367 6.41326ZM0 21.126V1.74116C0 1.2962 0.174116 0.894762 0.522347 0.536857C0.870579 0.178952 1.27685 0 1.74116 0H21.4743C21.9192 0 22.3207 0.178952 22.6786 0.536857C23.0365 0.894762 23.2154 1.2962 23.2154 1.74116V16.8312C23.2154 17.2762 23.0365 17.6776 22.6786 18.0355C22.3207 18.3934 21.9192 18.5723 21.4743 18.5723H4.64309L1.47998 21.7355C1.20914 22.0063 0.894762 22.0692 0.536857 21.9241C0.178952 21.779 0 21.513 0 21.126ZM1.74116 19.0076L3.9176 16.8312H21.4743V1.74116H1.74116V19.0076ZM1.74116 1.74116V16.8312V19.0076V1.74116Z"/>
  </symbol>
  <symbol xmlns="http://www.w3.org/2000/svg" viewBox="0 0 28 11" id="end-call">
  <path d="M14 0C16.6337 0 19.1524 0.527778 21.5561 1.58333C23.9598 2.63889 26.0187 4.16997 27.7327 6.17657C27.8999 6.38559 27.9887 6.61551 27.9992 6.86634C28.0096 7.11716 27.9208 7.33663 27.7327 7.52475L24.7855 10.4719C24.6183 10.6392 24.3779 10.7332 24.0644 10.7541C23.7508 10.775 23.5 10.7123 23.3119 10.566L19.3614 7.61881V2.79043C18.4835 2.456 17.5899 2.22085 16.6807 2.08498C15.7715 1.94912 14.8779 1.88119 14 1.88119C13.1221 1.88119 12.2285 1.94912 11.3193 2.08498C10.4101 2.22085 9.5165 2.456 8.63861 2.79043V7.61881L4.68812 10.566C4.43729 10.7541 4.18124 10.8377 3.91997 10.8168C3.65869 10.7959 3.42354 10.681 3.21452 10.4719L0.267327 7.52475C0.0792079 7.33663 -0.00962596 7.11716 0.000825083 6.86634C0.0112761 6.61551 0.10011 6.38559 0.267327 6.17657C1.9813 4.16997 4.04015 2.63889 6.44389 1.58333C8.84763 0.527778 11.3663 0 14 0ZM3.99835 8.62211L6.60066 6.70957V3.57426C5.78548 3.9714 5.01733 4.44692 4.2962 5.00082C3.57508 5.55473 2.88009 6.14521 2.21122 6.77228L3.99835 8.62211ZM23.9703 8.59076L25.7888 6.77228C25.1199 6.08251 24.404 5.47112 23.6411 4.93812C22.8782 4.40512 22.0787 3.90869 21.2426 3.44884V6.52145L23.9703 8.59076Z" fill="white"/>
  </symbol>
  <symbol xmlns="http://www.w3.org/2000/svg"  viewBox="0 0 14 18"  id="pin">
<path d="M8.8002 1.8V6.3C8.8002 7.308 9.1332 8.244 9.7002 9H4.3002C4.8852 8.226 5.2002 7.29 5.2002 6.3V1.8H8.8002ZM11.5002 0H2.5002C2.0052 0 1.6002 0.405 1.6002 0.9C1.6002 1.395 2.0052 1.8 2.5002 1.8H3.4002V6.3C3.4002 7.794 2.1942 9 0.700195 9V10.8H6.0732V17.1L6.9732 18L7.8732 17.1V10.8H13.3002V9C11.8062 9 10.6002 7.794 10.6002 6.3V1.8H11.5002C11.9952 1.8 12.4002 1.395 12.4002 0.9C12.4002 0.405 11.9952 0 11.5002 0Z" fill="inherit"/>
</symbol>
<symbol xmlns="http://www.w3.org/2000/svg" viewBox="0 0 24 24" id="unpin" fill="inherit">
<g><rect fill="none" height="24" width="24"/><rect fill="none" height="24" width="24"/></g><g><path d="M19,12.87c0-0.47-0.34-0.85-0.8-0.98C16.93,11.54,16,10.38,16,9V4l1,0 c0.55,0,1-0.45,1-1c0-0.55-0.45-1-1-1H7C6.45,2,6,2.45,6,3c0,0.55,0.45,1,1,1l1,0v5c0,1.38-0.93,2.54-2.2,2.89 C5.34,12.02,5,12.4,5,12.87V13c0,0.55,0.45,1,1,1h4.98L11,21c0,0.55,0.45,1,1,1c0.55,0,1-0.45,1-1l-0.02-7H18c0.55,0,1-0.45,1-1 V12.87z" fill-rule="evenodd"/></g>
</symbol>
<symbol xmlns="http://www.w3.org/2000/svg" viewBox="0 0 20 20" id="close">
<path d="M10 11.6092L1.95402 19.6552C1.72414 19.8851 1.45594 20 1.14943 20C0.842912 20 0.574713 19.8851 0.344827 19.6552C0.114942 19.4253 0 19.1571 0 18.8506C0 18.5441 0.114942 18.2759 0.344827 18.046L8.39081 10L0.344827 1.95402C0.114942 1.72414 0 1.45594 0 1.14943C0 0.842912 0.114942 0.574713 0.344827 0.344827C0.574713 0.114942 0.842912 0 1.14943 0C1.45594 0 1.72414 0.114942 1.95402 0.344827L10 8.39081L18.046 0.344827C18.2759 0.114942 18.5441 0 18.8506 0C19.1571 0 19.4253 0.114942 19.6552 0.344827C19.8851 0.574713 20 0.842912 20 1.14943C20 1.45594 19.8851 1.72414 19.6552 1.95402L11.6092 10L19.6552 18.046C19.8851 18.2759 20 18.5441 20 18.8506C20 19.1571 19.8851 19.4253 19.6552 19.6552C19.4253 19.8851 19.1571 20 18.8506 20C18.5441 20 18.2759 19.8851 18.046 19.6552L10 11.6092Z" fill="white"/>
</symbol>
<symbol xmlns="http://www.w3.org/2000/svg" viewBox="0 0 20 17" id="send-message">
<path d="M0 16.177V0.823047C0 0.525274 0.126405 0.297291 0.379214 0.1391C0.632023 -0.0190921 0.898877 -0.0423556 1.17978 0.0693092L19.4944 7.71835C19.8315 7.86723 20 8.12778 20 8.5C20 8.87222 19.8315 9.13277 19.4944 9.28165L1.17978 16.9307C0.898877 17.0424 0.632023 17.0191 0.379214 16.8609C0.126405 16.7027 0 16.4747 0 16.177ZM1.68539 14.837L16.9663 8.5L1.68539 2.07928V6.7692L8.48315 8.5L1.68539 10.175V14.837ZM1.68539 8.5V2.07928V6.7692V10.175V14.837V8.5Z" fill="#CDFFFB"/>
</symbol>
<symbol xmlns="http://www.w3.org/2000/svg" viewBox="0 0 22 22" id="report">
<path d="M7.18056 22C6.93611 22 6.69676 21.9491 6.4625 21.8472C6.22824 21.7454 6.02963 21.613 5.86667 21.45L0.55 16.1333C0.387037 15.9704 0.25463 15.7718 0.152778 15.5375C0.0509259 15.3032 0 15.0639 0 14.8194V7.18056C0 6.93611 0.0509259 6.69676 0.152778 6.4625C0.25463 6.22824 0.387037 6.02963 0.55 5.86667L5.86667 0.55C6.02963 0.387037 6.22824 0.25463 6.4625 0.152778C6.69676 0.0509259 6.93611 0 7.18056 0H14.8194C15.0639 0 15.3032 0.0509259 15.5375 0.152778C15.7718 0.25463 15.9704 0.387037 16.1333 0.55L21.45 5.86667C21.613 6.02963 21.7454 6.22824 21.8472 6.4625C21.9491 6.69676 22 6.93611 22 7.18056V14.8194C22 15.0639 21.9491 15.3032 21.8472 15.5375C21.7454 15.7718 21.613 15.9704 21.45 16.1333L16.1333 21.45C15.9704 21.613 15.7718 21.7454 15.5375 21.8472C15.3032 21.9491 15.0639 22 14.8194 22H7.18056ZM11 17.0806C11.2852 17.0806 11.5347 16.9736 11.7486 16.7597C11.9625 16.5458 12.0694 16.2963 12.0694 16.0111C12.0694 15.7259 11.9625 15.4764 11.7486 15.2625C11.5347 15.0486 11.2852 14.9417 11 14.9417C10.7148 14.9417 10.4653 15.0486 10.2514 15.2625C10.0375 15.4764 9.93056 15.7259 9.93056 16.0111C9.93056 16.2963 10.0375 16.5458 10.2514 16.7597C10.4653 16.9736 10.7148 17.0806 11 17.0806ZM11 12.6806C11.2648 12.6806 11.4838 12.594 11.6569 12.4208C11.8301 12.2477 11.9167 12.0287 11.9167 11.7639V5.56111C11.9167 5.2963 11.8301 5.07731 11.6569 4.90417C11.4838 4.73102 11.2648 4.64444 11 4.64444C10.7352 4.64444 10.5162 4.73102 10.3431 4.90417C10.1699 5.07731 10.0833 5.2963 10.0833 5.56111V11.7639C10.0833 12.0287 10.1699 12.2477 10.3431 12.4208C10.5162 12.594 10.7352 12.6806 11 12.6806ZM7.18056 20.1667H14.8194L20.1667 14.8194V7.18056L14.8194 1.83333H7.18056L1.83333 7.18056V14.8194L7.18056 20.1667Z"/>
</symbol>
<symbol  xmlns="http://www.w3.org/2000/svg" viewBox="0 0 18 12" id="participants" >
<path d="M0.57971 12C0.412238 12 0.273752 11.9453 0.164251 11.8357C0.0547504 11.7262 0 11.5878 0 11.4203V10.1836C0 9.73269 0.115942 9.32367 0.347826 8.95652C0.57971 8.58937 0.901771 8.31562 1.31401 8.13527C2.25443 7.72303 3.10145 7.42673 3.85507 7.24638C4.6087 7.06602 5.38486 6.97585 6.18358 6.97585C6.98229 6.97585 7.75523 7.06602 8.50242 7.24638C9.2496 7.42673 10.0934 7.72303 11.0338 8.13527C11.4461 8.31562 11.7713 8.58937 12.0097 8.95652C12.248 9.32367 12.3672 9.73269 12.3672 10.1836V11.4203C12.3672 11.5878 12.3124 11.7262 12.2029 11.8357C12.0934 11.9453 11.9549 12 11.7874 12H0.57971ZM13.1014 12C13.2303 11.9742 13.3333 11.9066 13.4106 11.7971C13.4879 11.6876 13.5266 11.5491 13.5266 11.3816V10.1836C13.5266 9.37198 13.3205 8.70531 12.9082 8.18357C12.496 7.66184 11.9549 7.23994 11.285 6.91788C12.1739 7.02094 13.0113 7.1723 13.7971 7.37198C14.5829 7.57166 15.2206 7.80032 15.7101 8.05797C16.1353 8.30274 16.4702 8.60548 16.715 8.96618C16.9597 9.32689 17.0821 9.73269 17.0821 10.1836V11.4203C17.0821 11.5878 17.0274 11.7262 16.9179 11.8357C16.8084 11.9453 16.6699 12 16.5024 12H13.1014ZM6.18358 5.7971C5.33333 5.7971 4.63768 5.52657 4.09662 4.98551C3.55556 4.44444 3.28502 3.74879 3.28502 2.89855C3.28502 2.04831 3.55556 1.35266 4.09662 0.811594C4.63768 0.270532 5.33333 0 6.18358 0C7.03382 0 7.72947 0.270532 8.27053 0.811594C8.81159 1.35266 9.08213 2.04831 9.08213 2.89855C9.08213 3.74879 8.81159 4.44444 8.27053 4.98551C7.72947 5.52657 7.03382 5.7971 6.18358 5.7971ZM13.1401 2.89855C13.1401 3.74879 12.8696 4.44444 12.3285 4.98551C11.7874 5.52657 11.0918 5.7971 10.2415 5.7971C10.0998 5.7971 9.94203 5.78744 9.76812 5.76812C9.5942 5.74879 9.43639 5.71337 9.29469 5.66184C9.60387 5.33978 9.83897 4.94364 10 4.47343C10.161 4.00322 10.2415 3.47826 10.2415 2.89855C10.2415 2.31884 10.161 1.80676 10 1.36232C9.83897 0.917875 9.60387 0.508857 9.29469 0.135266C9.43639 0.0966185 9.5942 0.0644124 9.76812 0.0386475C9.94203 0.0128826 10.0998 0 10.2415 0C11.0918 0 11.7874 0.270532 12.3285 0.811594C12.8696 1.35266 13.1401 2.04831 13.1401 2.89855ZM1.15942 10.8406H11.2077V10.1836C11.2077 9.97746 11.1465 9.77778 11.0242 9.58454C10.9018 9.3913 10.7504 9.25604 10.57 9.17874C9.64251 8.76651 8.86312 8.48953 8.23188 8.34783C7.60065 8.20612 6.91787 8.13527 6.18358 8.13527C5.44928 8.13527 4.76329 8.20612 4.1256 8.34783C3.48792 8.48953 2.70531 8.76651 1.77778 9.17874C1.59742 9.25604 1.44928 9.3913 1.33333 9.58454C1.21739 9.77778 1.15942 9.97746 1.15942 10.1836V10.8406ZM6.18358 4.63768C6.68599 4.63768 7.10145 4.47343 7.42995 4.14493C7.75845 3.81643 7.92271 3.40097 7.92271 2.89855C7.92271 2.39614 7.75845 1.98068 7.42995 1.65217C7.10145 1.32367 6.68599 1.15942 6.18358 1.15942C5.68116 1.15942 5.2657 1.32367 4.9372 1.65217C4.6087 1.98068 4.44444 2.39614 4.44444 2.89855C4.44444 3.40097 4.6087 3.81643 4.9372 4.14493C5.2657 4.47343 5.68116 4.63768 6.18358 4.63768Z" fill="inherit"/>
</symbol >
<symbol xmlns="http://www.w3.org/2000/svg" viewBox="0 0 25 22" id="call-settings">
<path d="M1.73684 19.1053C1.27368 19.1053 0.868421 18.9316 0.521053 18.5842C0.173684 18.2368 0 17.8316 0 17.3684V1.73684C0 1.27368 0.173684 0.868421 0.521053 0.521052C0.868421 0.173684 1.27368 0 1.73684 0H21.8263C22.2895 0 22.6947 0.173684 23.0421 0.521052C23.3895 0.868421 23.5632 1.27368 23.5632 1.73684V7.98947C23.5632 8.24035 23.4811 8.44781 23.3171 8.61184C23.1531 8.77588 22.9456 8.85789 22.6947 8.85789C22.4439 8.85789 22.2364 8.77588 22.0724 8.61184C21.9083 8.44781 21.8263 8.24035 21.8263 7.98947V1.73684H1.73684V17.3684H11.6658C11.9167 17.3684 12.1241 17.4504 12.2882 17.6145C12.4522 17.7785 12.5342 17.986 12.5342 18.2368C12.5342 18.4877 12.4522 18.6952 12.2882 18.8592C12.1241 19.0232 11.9167 19.1053 11.6658 19.1053H1.73684ZM10.45 13.6632C10.1605 13.8561 9.86623 13.8658 9.56711 13.6921C9.26798 13.5184 9.11842 13.2675 9.11842 12.9395V6.16579C9.11842 5.83772 9.26798 5.58684 9.56711 5.41316C9.86623 5.23947 10.1605 5.24912 10.45 5.4421L15.6316 8.82895C15.7667 8.92544 15.8632 9.03158 15.9211 9.14737C15.9789 9.26316 16.0079 9.39825 16.0079 9.55263C16.0079 9.70702 15.9789 9.84211 15.9211 9.9579C15.8632 10.0737 15.7667 10.1798 15.6316 10.2763L10.45 13.6632ZM19.2211 22C19.1053 22 19.0088 21.9662 18.9316 21.8987C18.8544 21.8311 18.8061 21.7395 18.7868 21.6237L18.6711 20.6105C18.2851 20.4947 17.8895 20.3259 17.4842 20.1039C17.0789 19.882 16.7509 19.636 16.5 19.3658L15.6316 19.7711C15.5351 19.8097 15.4338 19.8193 15.3276 19.8C15.2215 19.7807 15.1395 19.7228 15.0816 19.6263L14.4737 18.7C14.4158 18.6035 14.3965 18.507 14.4158 18.4105C14.4351 18.314 14.493 18.2272 14.5895 18.15L15.3711 17.5132C15.2746 17.0693 15.2263 16.6689 15.2263 16.3118C15.2263 15.9548 15.2746 15.5544 15.3711 15.1105L14.5895 14.4737C14.493 14.3965 14.4351 14.3096 14.4158 14.2132C14.3965 14.1167 14.4158 14.0202 14.4737 13.9237L15.0816 12.9684C15.1395 12.8719 15.2215 12.814 15.3276 12.7947C15.4338 12.7754 15.5351 12.7851 15.6316 12.8237L16.5 13.2289C16.7509 12.9974 17.0789 12.7658 17.4842 12.5342C17.8895 12.3026 18.2851 12.1289 18.6711 12.0132L18.7868 10.9711C18.8061 10.8553 18.8544 10.7636 18.9316 10.6961C19.0088 10.6285 19.1053 10.5947 19.2211 10.5947H20.1763C20.2921 10.5947 20.3886 10.6285 20.4658 10.6961C20.543 10.7636 20.5912 10.8553 20.6105 10.9711L20.7263 12.0132C21.1123 12.1289 21.5079 12.3026 21.9132 12.5342C22.3184 12.7658 22.6465 12.9974 22.8974 13.2289L23.7658 12.8237C23.8623 12.7851 23.9636 12.7754 24.0697 12.7947C24.1759 12.814 24.2579 12.8719 24.3158 12.9684L24.9237 13.9237C24.9816 14.0202 25.0009 14.1167 24.9816 14.2132C24.9623 14.3096 24.9044 14.3965 24.8079 14.4737L24.0263 15.1105C24.1228 15.5544 24.1711 15.9548 24.1711 16.3118C24.1711 16.6689 24.1228 17.0693 24.0263 17.5132L24.8079 18.15C24.9044 18.2272 24.9623 18.314 24.9816 18.4105C25.0009 18.507 24.9816 18.6035 24.9237 18.7L24.3158 19.6263C24.2579 19.7228 24.1759 19.7807 24.0697 19.8C23.9636 19.8193 23.8623 19.8097 23.7658 19.7711L22.8974 19.3658C22.6465 19.636 22.3184 19.882 21.9132 20.1039C21.5079 20.3259 21.1123 20.4947 20.7263 20.6105L20.6105 21.6237C20.5912 21.7395 20.543 21.8311 20.4658 21.8987C20.3886 21.9662 20.2921 22 20.1763 22H19.2211ZM19.6842 19.25C20.5333 19.25 21.2377 18.9702 21.7974 18.4105C22.357 17.8509 22.6368 17.1465 22.6368 16.2974C22.6368 15.4482 22.357 14.7439 21.7974 14.1842C21.2377 13.6246 20.5333 13.3447 19.6842 13.3447C18.8351 13.3447 18.1307 13.6246 17.5711 14.1842C17.0114 14.7439 16.7316 15.4482 16.7316 16.2974C16.7316 17.1465 17.0114 17.8509 17.5711 18.4105C18.1307 18.9702 18.8351 19.25 19.6842 19.25Z"/>
</symbol>
<symbol xmlns="http://www.w3.org/2000/svg"  viewBox="0 0 22 22" id="layout" fill="inherit">
<path d="M11.9167 7.33333V0.916667C11.9167 0.651852 12.0032 0.43287 12.1764 0.259722C12.3495 0.0865742 12.5685 0 12.8333 0H21.0833C21.3481 0 21.5671 0.0865742 21.7403 0.259722C21.9134 0.43287 22 0.651852 22 0.916667V7.33333C22 7.59815 21.9134 7.81713 21.7403 7.99028C21.5671 8.16343 21.3481 8.25 21.0833 8.25H12.8333C12.5685 8.25 12.3495 8.16343 12.1764 7.99028C12.0032 7.81713 11.9167 7.59815 11.9167 7.33333ZM0 11V0.916667C0 0.651852 0.0865742 0.43287 0.259722 0.259722C0.43287 0.0865742 0.651852 0 0.916667 0H9.16667C9.43148 0 9.65046 0.0865742 9.82361 0.259722C9.99676 0.43287 10.0833 0.651852 10.0833 0.916667V11C10.0833 11.2648 9.99676 11.4838 9.82361 11.6569C9.65046 11.8301 9.43148 11.9167 9.16667 11.9167H0.916667C0.651852 11.9167 0.43287 11.8301 0.259722 11.6569C0.0865742 11.4838 0 11.2648 0 11ZM11.9167 21.0833V11C11.9167 10.7352 12.0032 10.5162 12.1764 10.3431C12.3495 10.1699 12.5685 10.0833 12.8333 10.0833H21.0833C21.3481 10.0833 21.5671 10.1699 21.7403 10.3431C21.9134 10.5162 22 10.7352 22 11V21.0833C22 21.3481 21.9134 21.5671 21.7403 21.7403C21.5671 21.9134 21.3481 22 21.0833 22H12.8333C12.5685 22 12.3495 21.9134 12.1764 21.7403C12.0032 21.5671 11.9167 21.3481 11.9167 21.0833ZM0 21.0833V14.6667C0 14.4019 0.0865742 14.1829 0.259722 14.0097C0.43287 13.8366 0.651852 13.75 0.916667 13.75H9.16667C9.43148 13.75 9.65046 13.8366 9.82361 14.0097C9.99676 14.1829 10.0833 14.4019 10.0833 14.6667V21.0833C10.0833 21.3481 9.99676 21.5671 9.82361 21.7403C9.65046 21.9134 9.43148 22 9.16667 22H0.916667C0.651852 22 0.43287 21.9134 0.259722 21.7403C0.0865742 21.5671 0 21.3481 0 21.0833ZM1.83333 10.0833H8.25V1.83333H1.83333V10.0833ZM13.75 20.1667H20.1667V11.9167H13.75V20.1667ZM13.75 6.41667H20.1667V1.83333H13.75V6.41667ZM1.83333 20.1667H8.25V15.5833H1.83333V20.1667Z" fill="inherit"/>
</symbol>
<symbol xmlns="http://www.w3.org/2000/svg"  viewBox="0 0 36 36" id="tiled" fill="inherit">
<path d="M3 16.5C2.16667 16.5 1.45833 16.2083 0.875 15.625C0.291667 15.0417 0 14.3333 0 13.5V3C0 2.16667 0.291667 1.45833 0.875 0.875C1.45833 0.291667 2.16667 0 3 0H13.5C14.3333 0 15.0417 0.291667 15.625 0.875C16.2083 1.45833 16.5 2.16667 16.5 3V13.5C16.5 14.3333 16.2083 15.0417 15.625 15.625C15.0417 16.2083 14.3333 16.5 13.5 16.5H3ZM3 36C2.16667 36 1.45833 35.7083 0.875 35.125C0.291667 34.5417 0 33.8333 0 33V22.5C0 21.6667 0.291667 20.9583 0.875 20.375C1.45833 19.7917 2.16667 19.5 3 19.5H13.5C14.3333 19.5 15.0417 19.7917 15.625 20.375C16.2083 20.9583 16.5 21.6667 16.5 22.5V33C16.5 33.8333 16.2083 34.5417 15.625 35.125C15.0417 35.7083 14.3333 36 13.5 36H3ZM22.5 16.5C21.6667 16.5 20.9583 16.2083 20.375 15.625C19.7917 15.0417 19.5 14.3333 19.5 13.5V3C19.5 2.16667 19.7917 1.45833 20.375 0.875C20.9583 0.291667 21.6667 0 22.5 0H33C33.8333 0 34.5417 0.291667 35.125 0.875C35.7083 1.45833 36 2.16667 36 3V13.5C36 14.3333 35.7083 15.0417 35.125 15.625C34.5417 16.2083 33.8333 16.5 33 16.5H22.5ZM22.5 36C21.6667 36 20.9583 35.7083 20.375 35.125C19.7917 34.5417 19.5 33.8333 19.5 33V22.5C19.5 21.6667 19.7917 20.9583 20.375 20.375C20.9583 19.7917 21.6667 19.5 22.5 19.5H33C33.8333 19.5 34.5417 19.7917 35.125 20.375C35.7083 20.9583 36 21.6667 36 22.5V33C36 33.8333 35.7083 34.5417 35.125 35.125C34.5417 35.7083 33.8333 36 33 36H22.5ZM3 13.5H13.5V3H3V13.5ZM22.5 13.5H33V3H22.5V13.5ZM22.5 33H33V22.5H22.5V33ZM3 33H13.5V22.5H3V33Z" fill="inherit"/>
</symbol>
<symbol xmlns="http://www.w3.org/2000/svg"  viewBox="0 0 45 36"  id="sidebar" fill="inherit">
<path d="M3.375 36C2.4375 36 1.64062 35.6719 0.984375 35.0156C0.328125 34.3594 0 33.5625 0 32.625V3.375C0 2.4375 0.328125 1.64062 0.984375 0.984375C1.64062 0.328125 2.4375 0 3.375 0H41.625C42.5625 0 43.3594 0.328125 44.0156 0.984375C44.6719 1.64062 45 2.4375 45 3.375V32.625C45 33.5625 44.6719 34.3594 44.0156 35.0156C43.3594 35.6719 42.5625 36 41.625 36H3.375ZM33.9188 11.0813H41.625V3.375H33.9188V11.0813ZM33.9188 21.5437H41.625V14.4563H33.9188V21.5437ZM3.375 32.625H30.5437V3.375H3.375V32.625ZM33.9188 32.625H41.625V24.9187H33.9188V32.625Z" fill="inherit"/>
</symbol>

<symbol xmlns="http://www.w3.org/2000/svg"  viewBox="0 0 25 25" id="settings" fill="inherit">
<path d="M14.2812 25H10.1562C9.92708 25 9.72396 24.9271 9.54688 24.7812C9.36979 24.6354 9.26042 24.4479 9.21875 24.2188L8.71875 21.0625C8.32292 20.9167 7.90625 20.7188 7.46875 20.4688C7.03125 20.2188 6.64583 19.9583 6.3125 19.6875L3.40625 21.0312C3.17708 21.1354 2.94792 21.151 2.71875 21.0781C2.48958 21.0052 2.3125 20.8542 2.1875 20.625L0.125 16.9688C4.65661e-08 16.7604 -0.03125 16.5417 0.03125 16.3125C0.09375 16.0833 0.21875 15.8958 0.40625 15.75L3.09375 13.7812C3.05208 13.5937 3.02604 13.3802 3.01562 13.1406C3.00521 12.901 3 12.6875 3 12.5C3 12.3125 3.00521 12.099 3.01562 11.8594C3.02604 11.6198 3.05208 11.4063 3.09375 11.2188L0.40625 9.25C0.21875 9.10417 0.09375 8.91667 0.03125 8.6875C-0.03125 8.45833 4.65661e-08 8.23958 0.125 8.03125L2.1875 4.375C2.3125 4.14583 2.48958 3.99479 2.71875 3.92187C2.94792 3.84896 3.17708 3.86458 3.40625 3.96875L6.3125 5.3125C6.64583 5.04167 7.03125 4.78125 7.46875 4.53125C7.90625 4.28125 8.32292 4.09375 8.71875 3.96875L9.21875 0.78125C9.26042 0.552083 9.36979 0.364583 9.54688 0.21875C9.72396 0.0729166 9.92708 0 10.1562 0H14.2812C14.5104 0 14.7135 0.0729166 14.8906 0.21875C15.0677 0.364583 15.1771 0.552083 15.2187 0.78125L15.7188 3.9375C16.1146 4.08333 16.5365 4.27604 16.9844 4.51562C17.4323 4.75521 17.8125 5.02083 18.125 5.3125L21.0312 3.96875C21.2604 3.86458 21.4896 3.84896 21.7188 3.92187C21.9479 3.99479 22.125 4.14583 22.25 4.375L24.3125 8C24.4375 8.20833 24.474 8.43229 24.4219 8.67188C24.3698 8.91146 24.2396 9.10417 24.0312 9.25L21.3437 11.1562C21.3854 11.3646 21.4115 11.5885 21.4219 11.8281C21.4323 12.0677 21.4375 12.2917 21.4375 12.5C21.4375 12.7083 21.4323 12.9271 21.4219 13.1562C21.4115 13.3854 21.3854 13.6042 21.3437 13.8125L24.0312 15.75C24.2188 15.8958 24.3438 16.0833 24.4062 16.3125C24.4688 16.5417 24.4375 16.7604 24.3125 16.9688L22.25 20.625C22.125 20.8542 21.9479 21.0052 21.7188 21.0781C21.4896 21.151 21.2604 21.1354 21.0312 21.0312L18.125 19.6875C17.7917 19.9583 17.4115 20.224 16.9844 20.4844C16.5573 20.7448 16.1354 20.9375 15.7188 21.0625L15.2187 24.2188C15.1771 24.4479 15.0677 24.6354 14.8906 24.7812C14.7135 24.9271 14.5104 25 14.2812 25ZM12.2188 16.5625C13.3437 16.5625 14.3021 16.1667 15.0938 15.375C15.8854 14.5833 16.2812 13.625 16.2812 12.5C16.2812 11.375 15.8854 10.4167 15.0938 9.625C14.3021 8.83333 13.3437 8.4375 12.2188 8.4375C11.0938 8.4375 10.1354 8.83333 9.34375 9.625C8.55208 10.4167 8.15625 11.375 8.15625 12.5C8.15625 13.625 8.55208 14.5833 9.34375 15.375C10.1354 16.1667 11.0938 16.5625 12.2188 16.5625ZM12.2188 14.6875C11.6146 14.6875 11.099 14.474 10.6719 14.0469C10.2448 13.6198 10.0312 13.1042 10.0312 12.5C10.0312 11.8958 10.2448 11.3802 10.6719 10.9531C11.099 10.526 11.6146 10.3125 12.2188 10.3125C12.8229 10.3125 13.3385 10.526 13.7656 10.9531C14.1927 11.3802 14.4062 11.8958 14.4062 12.5C14.4062 13.1042 14.1927 13.6198 13.7656 14.0469C13.3385 14.474 12.8229 14.6875 12.2188 14.6875ZM10.8437 23.125H13.5938L14.0312 19.625C14.7187 19.4583 15.3698 19.1979 15.9844 18.8438C16.599 18.4896 17.1562 18.0625 17.6562 17.5625L20.9688 19L22.2188 16.75L19.2812 14.5938C19.3646 14.2396 19.4323 13.8906 19.4844 13.5469C19.5365 13.2031 19.5625 12.8542 19.5625 12.5C19.5625 12.1458 19.5417 11.7969 19.5 11.4531C19.4583 11.1094 19.3854 10.7604 19.2812 10.4062L22.2188 8.25L20.9688 6L17.6562 7.4375C17.1771 6.89583 16.6354 6.44271 16.0312 6.07812C15.4271 5.71354 14.7604 5.47917 14.0312 5.375L13.5938 1.875H10.8437L10.4062 5.375C9.69792 5.52083 9.03646 5.77083 8.42188 6.125C7.80729 6.47917 7.26042 6.91667 6.78125 7.4375L3.46875 6L2.21875 8.25L5.15625 10.4062C5.07292 10.7604 5.00521 11.1094 4.95312 11.4531C4.90104 11.7969 4.875 12.1458 4.875 12.5C4.875 12.8542 4.90104 13.2031 4.95312 13.5469C5.00521 13.8906 5.07292 14.2396 5.15625 14.5938L2.21875 16.75L3.46875 19L6.78125 17.5625C7.28125 18.0625 7.83854 18.4896 8.45312 18.8438C9.06771 19.1979 9.71875 19.4583 10.4062 19.625L10.8437 23.125Z" fill="inherit"/>
  </symbol>
<symbol xmlns="http://www.w3.org/2000/svg"  viewBox="0 0 20 20" id="info" fill="inherit">
<path d="M10.075 15C10.2917 15 10.4708 14.9292 10.6125 14.7875C10.7542 14.6458 10.825 14.4667 10.825 14.25V9.725C10.825 9.525 10.75 9.35417 10.6 9.2125C10.45 9.07083 10.275 9 10.075 9C9.85833 9 9.67917 9.07083 9.5375 9.2125C9.39583 9.35417 9.325 9.53333 9.325 9.75V14.275C9.325 14.475 9.4 14.6458 9.55 14.7875C9.7 14.9292 9.875 15 10.075 15ZM10 7.15C10.2333 7.15 10.4292 7.075 10.5875 6.925C10.7458 6.775 10.825 6.58333 10.825 6.35C10.825 6.11667 10.7458 5.91667 10.5875 5.75C10.4292 5.58333 10.2333 5.5 10 5.5C9.76667 5.5 9.57083 5.58333 9.4125 5.75C9.25417 5.91667 9.175 6.11667 9.175 6.35C9.175 6.58333 9.25417 6.775 9.4125 6.925C9.57083 7.075 9.76667 7.15 10 7.15ZM10 20C8.58333 20 7.26667 19.7458 6.05 19.2375C4.83333 18.7292 3.775 18.025 2.875 17.125C1.975 16.225 1.27083 15.1667 0.7625 13.95C0.254167 12.7333 0 11.4167 0 10C0 8.6 0.254167 7.29167 0.7625 6.075C1.27083 4.85833 1.975 3.8 2.875 2.9C3.775 2 4.83333 1.29167 6.05 0.775C7.26667 0.258333 8.58333 0 10 0C11.4 0 12.7083 0.258333 13.925 0.775C15.1417 1.29167 16.2 2 17.1 2.9C18 3.8 18.7083 4.85833 19.225 6.075C19.7417 7.29167 20 8.6 20 10C20 11.4167 19.7417 12.7333 19.225 13.95C18.7083 15.1667 18 16.225 17.1 17.125C16.2 18.025 15.1417 18.7292 13.925 19.2375C12.7083 19.7458 11.4 20 10 20ZM10 18.5C12.3333 18.5 14.3333 17.6667 16 16C17.6667 14.3333 18.5 12.3333 18.5 10C18.5 7.66667 17.6667 5.66667 16 4C14.3333 2.33333 12.3333 1.5 10 1.5C7.66667 1.5 5.66667 2.33333 4 4C2.33333 5.66667 1.5 7.66667 1.5 10C1.5 12.3333 2.33333 14.3333 4 16C5.66667 17.6667 7.66667 18.5 10 18.5Z" fill="inherit"/>
  </symbol>
<symbol xmlns="http://www.w3.org/2000/svg"  viewBox="0 0 14 16" id="copy" fill="inherit">
  <path d="M3.70588 13.6C3.36275 13.6 3.07108 13.4833 2.83088 13.25C2.59069 13.0167 2.47059 12.7333 2.47059 12.4V1.2C2.47059 0.866667 2.59069 0.583333 2.83088 0.35C3.07108 0.116667 3.36275 0 3.70588 0H12.7647C13.1078 0 13.3995 0.116667 13.6397 0.35C13.8799 0.583333 14 0.866667 14 1.2V12.4C14 12.7333 13.8799 13.0167 13.6397 13.25C13.3995 13.4833 13.1078 13.6 12.7647 13.6H3.70588ZM3.70588 12.4H12.7647V1.2H3.70588V12.4ZM1.23529 16C0.892157 16 0.60049 15.8833 0.360294 15.65C0.120098 15.4167 0 15.1333 0 14.8V3.34C0 3.16667 0.0583334 3.02333 0.175 2.91C0.291667 2.79667 0.439216 2.74 0.617647 2.74C0.796078 2.74 0.943627 2.79667 1.06029 2.91C1.17696 3.02333 1.23529 3.16667 1.23529 3.34V14.8H10.3765C10.5549 14.8 10.7025 14.8567 10.8191 14.97C10.9358 15.0833 10.9941 15.2267 10.9941 15.4C10.9941 15.5733 10.9358 15.7167 10.8191 15.83C10.7025 15.9433 10.5549 16 10.3765 16H1.23529ZM3.70588 1.2V12.4V1.2Z" fill="inherit"/>
</symbol>
<symbol xmlns="http://www.w3.org/2000/svg" id="filled-tiles-2x2"  viewBox="0 0 28 28" fill="inherit">
  <rect width="13.0667" height="13.0667" rx="2" fill="inherit"/>
  <rect y="14.9333" width="13.0667" height="13.0667" rx="2" fill="inherit"/>
  <rect x="14.9316" width="13.0667" height="13.0667" rx="2" fill="inherit"/>
  <rect x="14.9316" y="14.9333" width="13.0667" height="13.0667" rx="2" fill="inherit"/>
</symbol>
<symbol xmlns="http://www.w3.org/2000/svg" id="filled-tiles-3x3" viewBox="0 0 36 36" fill="inherit">
  <rect width="10.9565" height="10.9565" rx="2" fill="inherit"/>
  <rect y="12.5217" width="10.9565" height="10.9565" rx="2" fill="inherit"/>
  <rect y="25.0435" width="10.9565" height="10.9565" rx="2" fill="inherit"/>
  <rect x="12.5215" width="10.9565" height="10.9565" rx="2" fill="inherit"/>
  <rect x="25.043" width="10.9565" height="10.9565" rx="2" fill="inherit"/>
  <rect x="12.5215" y="12.5217" width="10.9565" height="10.9565" rx="2" fill="inherit"/>
  <rect x="12.5215" y="25.0435" width="10.9565" height="10.9565" rx="2" fill="inherit"/>
  <rect x="25.043" y="12.5217" width="10.9565" height="10.9565" rx="2" fill="inherit"/>
  <rect x="25.043" y="25.0435" width="10.9565" height="10.9565" rx="2" fill="inherit"/>
</symbol>
<symbol xmlns="http://www.w3.org/2000/svg" id="background-replacement" viewBox="0 0 83.828 83.828" fill="inherit">
  <path d="M77.585,5.825H6.243C2.801,5.825,0,8.625,0,12.067v59.695c0,3.442,2.801,6.242,6.243,6.242h71.342
		c3.442,0,6.243-2.8,6.243-6.242V12.067C83.828,8.625,81.028,5.825,77.585,5.825z M77.828,71.762c0,0.134-0.109,0.242-0.243,0.242
		H6.243C6.109,72.005,6,71.896,6,71.762V12.067c0-0.133,0.109-0.242,0.243-0.242h71.342c0.134,0,0.243,0.109,0.243,0.242V71.762z"/>
  <path d="M10.552,64.548h62.65V16.333h-62.65V64.548z M16.552,22.333h50.65v36.214h-10.12c-0.719-6.008-3.729-9.353-6.276-11.644
		c1.6-1.971,2.563-4.478,2.563-7.207c0-6.316-5.139-11.455-11.455-11.455c-6.317,0-11.456,5.139-11.456,11.455
		c0,2.729,0.963,5.236,2.563,7.207c-2.547,2.291-5.558,5.636-6.277,11.644H16.552V22.333z M41.913,45.153
		c-3.008,0-5.456-2.447-5.456-5.456c0-3.008,2.448-5.455,5.456-5.455s5.455,2.447,5.455,5.455
		C47.368,42.706,44.921,45.153,41.913,45.153z M37.629,50.839c1.371,0.471,2.825,0.72,4.308,0.731
		c1.451-0.012,2.895-0.261,4.262-0.731c2.063,1.791,4.084,3.749,4.789,7.462h-18.15C33.543,54.587,35.564,52.629,37.629,50.839z"/>
</symbol>
</svg>
