<svg width="0" height="0" class="hidden">
  <symbol  xmlns="http://www.w3.org/2000/svg" viewBox="0 0 40 33" id="ant-media-light">
    <path d="M8.24729 12.3672C8.19932 12.3205 3.03691 10.983 2.18422 7.25814C2.32648 4.48822 10.4315 2.14911 20.0045 2.14911C29.6256 2.14911 37.6826 4.48822 37.8737 7.25814C36.9722 10.9347 31.8536 12.3205 31.8106 12.3672C31.5784 12.4232 31.3724 12.5581 31.2274 12.7492C31.0823 12.9403 31.007 13.1759 31.0142 13.4163V31.9058C31.016 32.1807 31.124 32.4441 31.3153 32.6401C31.5066 32.8361 31.7661 32.9493 32.0389 32.9558C34.6457 32.9075 36.825 32.2892 38.2003 30.9025C39.2922 29.8304 39.936 28.3783 40 26.8435V7.35481C39.9992 2.29244 29.6206 0 19.9996 0C10.3786 0 0 2.29244 0 7.35481V26.8368C0.0861077 28.4037 0.744168 29.8833 1.84762 30.9909C3.17502 32.3325 5.11858 32.9991 7.59144 32.9991C7.71921 33.0041 7.84691 32.9877 7.9694 32.9508C8.2459 32.9493 8.51067 32.838 8.70634 32.6412C8.90201 32.4444 9.01283 32.1778 9.01478 31.8992V13.4122C9.01638 13.178 8.94262 12.9496 8.80455 12.7612C8.66648 12.5728 8.47154 12.4345 8.24894 12.3672H8.24729ZM6.87191 14.1821V30.8C5.57915 30.8048 4.32983 30.3302 3.36194 29.4667C2.64469 28.7737 2.20624 27.8385 2.13047 26.8401V11.2689C3.48523 12.5714 5.10231 13.565 6.87191 14.1821ZM37.8671 26.8368C37.8671 27.2176 37.6768 30.42 33.1264 30.7992V14.1821C34.897 13.5661 36.5143 12.5711 37.8671 11.2655V26.8368Z" fill="inherit"></path>
    <path d="M26.113 18.7186L17.7243 13.8954C17.3656 13.6286 16.9375 13.4728 16.4924 13.4469C16.0473 13.421 15.6043 13.5262 15.2175 13.7496C14.8306 13.973 14.5167 14.305 14.3139 14.7051C14.1111 15.1052 14.0282 15.5561 14.0754 16.0028V25.6967C14.0431 26.1406 14.132 26.5849 14.3324 26.9816C14.5329 27.3782 14.8373 27.7119 15.2126 27.9467C15.526 28.141 15.8884 28.2403 16.2563 28.2325C16.7739 28.2178 17.2792 28.0701 17.7243 27.8033L26.113 22.981C26.522 22.7975 26.8695 22.4985 27.1133 22.1202C27.3572 21.7419 27.487 21.3005 27.487 20.8493C27.487 20.3982 27.3572 19.9568 27.1133 19.5785C26.8695 19.2002 26.522 18.9012 26.113 18.7177V18.7186ZM25.023 21.106L16.6343 25.9284C16.444 26.0717 16.3034 26.0717 16.3034 26.1184C16.2264 25.9895 16.1933 25.8388 16.2092 25.6892V15.997C16.2092 15.6637 16.2092 15.6145 16.2571 15.6145C16.396 15.6171 16.5297 15.6683 16.6351 15.7595L25.0238 20.5819C25.2603 20.7252 25.3075 20.8202 25.3546 20.8202C25.3546 20.8685 25.2587 20.9635 25.0238 21.106H25.023Z" fill="inherit"></path>
    <path d="M22.6783 4.55912L19.4222 7.29238C14.6809 6.5348 9.85069 6.5348 5.10938 7.29238C10.6714 5.00367 16.6902 4.0673 22.6783 4.55912Z" fill="inherit"></path>
    <path d="M26.9194 5.13144L22.8859 8.1422C22.2882 7.94944 21.6809 7.78839 21.0664 7.65971L24.5317 4.73895C25.3067 4.85978 26.1139 4.98311 26.9194 5.13144Z" fill="inherit"></path>
    <path d="M30.8293 6.18495L26.2276 9.39986C25.6291 9.09535 25.0101 8.83387 24.375 8.61739L28.5888 5.51663H28.6194C29.3406 5.70413 30.0849 5.91412 30.8293 6.18495Z" fill="inherit"></path>
    <path d="M34.5958 7.6297L28.9496 10.8796C28.5084 10.58 28.049 10.3084 27.5742 10.0663L32.3603 6.69055C33.1022 6.96721 33.849 7.29804 34.5958 7.6297Z" fill="inherit"></path>
  </symbol>

  <symbol xmlns="http://www.w3.org/2000/svg"  viewBox="0 0 17 22" id="microphone" >
    <path d="M8.05744 13.2289C7.22761 13.2289 6.53288 12.9298 5.97323 12.3316C5.41358 11.7333 5.13375 11.0096 5.13375 10.1605V2.89474C5.13375 2.08421 5.4184 1.39912 5.9877 0.839474C6.557 0.279824 7.24691 0 8.05744 0C8.86796 0 9.55788 0.279824 10.1272 0.839474C10.6965 1.39912 10.9811 2.08421 10.9811 2.89474V10.1605C10.9811 11.0096 10.7013 11.7333 10.1416 12.3316C9.582 12.9298 8.88726 13.2289 8.05744 13.2289ZM8.05744 22C7.80656 22 7.5991 21.918 7.43507 21.7539C7.27103 21.5899 7.18902 21.3825 7.18902 21.1316V18.0632C5.29779 17.8509 3.68156 17.0934 2.34033 15.7908C0.999103 14.4882 0.222349 12.9202 0.0100687 11.0868C-0.0285278 10.836 0.0438406 10.6189 0.227174 10.4355C0.410507 10.2522 0.637261 10.1605 0.907437 10.1605C1.11972 10.1605 1.30305 10.2377 1.45744 10.3921C1.61182 10.5465 1.70831 10.7298 1.74691 10.9421C1.95919 12.5053 2.65393 13.8031 3.83112 14.8355C5.00831 15.868 6.41709 16.3842 8.05744 16.3842C9.69779 16.3842 11.1066 15.868 12.2838 14.8355C13.4609 13.8031 14.1557 12.5053 14.368 10.9421C14.4066 10.7298 14.5079 10.5465 14.6719 10.3921C14.8359 10.2377 15.0241 10.1605 15.2364 10.1605C15.5066 10.1605 15.7285 10.2522 15.9022 10.4355C16.0759 10.6189 16.1434 10.836 16.1048 11.0868C15.8925 12.9202 15.1158 14.4882 13.7745 15.7908C12.4333 17.0934 10.8171 17.8509 8.92586 18.0632V21.1316C8.92586 21.3825 8.84384 21.5899 8.67981 21.7539C8.51577 21.918 8.30831 22 8.05744 22ZM8.05744 11.4921C8.40481 11.4921 8.68945 11.3618 8.91138 11.1013C9.13331 10.8408 9.24428 10.5272 9.24428 10.1605V2.89474C9.24428 2.56667 9.12849 2.29167 8.89691 2.06974C8.66533 1.84781 8.38551 1.73684 8.05744 1.73684C7.72937 1.73684 7.44954 1.84781 7.21796 2.06974C6.98638 2.29167 6.87059 2.56667 6.87059 2.89474V10.1605C6.87059 10.5272 6.98156 10.8408 7.20349 11.1013C7.42542 11.3618 7.71007 11.4921 8.05744 11.4921Z" fill="inherit"/>
  </symbol>

  <symbol xmlns="http://www.w3.org/2000/svg"  viewBox="0 0 22 22" id="muted-microphone">
    <path d="M17.2211 13.9755L16.0632 12.8176C16.3684 12.4406 16.6063 12.0277 16.7768 11.5789C16.9473 11.1302 17.0595 10.6634 17.1134 10.1787C17.1493 9.98123 17.2436 9.81069 17.3961 9.66708C17.5487 9.52346 17.7238 9.45165 17.9212 9.45165C18.1726 9.45165 18.379 9.53692 18.5406 9.70747C18.7021 9.87801 18.765 10.08 18.7291 10.3133C18.6393 10.9776 18.4688 11.6238 18.2174 12.2521C17.9661 12.8805 17.634 13.4549 17.2211 13.9755ZM13.7744 10.5288L12.3472 9.12852V2.71971C12.3472 2.41453 12.2395 2.15422 12.024 1.9388C11.8086 1.72338 11.5483 1.61567 11.2431 1.61567C10.938 1.61567 10.6777 1.72338 10.4622 1.9388C10.2468 2.15422 10.1391 2.41453 10.1391 2.71971V6.89351L8.52344 5.27785V2.71971C8.52344 1.96573 8.78823 1.32395 9.31781 0.79437C9.84738 0.26479 10.4892 0 11.2431 0C11.9971 0 12.6389 0.26479 13.1685 0.79437C13.6981 1.32395 13.9628 1.96573 13.9628 2.71971V9.45165C13.9628 9.59527 13.9494 9.77479 13.9225 9.99021C13.8955 10.2056 13.8462 10.3851 13.7744 10.5288ZM20.4524 21.7577L14.7168 16.022C14.3039 16.2195 13.8731 16.3856 13.4243 16.5202C12.9755 16.6548 12.5177 16.7491 12.051 16.8029V19.6573C12.051 19.8907 11.9747 20.0836 11.8221 20.2362C11.6695 20.3888 11.4765 20.4651 11.2431 20.4651C11.0098 20.4651 10.8168 20.3888 10.6642 20.2362C10.5116 20.0836 10.4353 19.8907 10.4353 19.6573V16.8029C8.67603 16.6234 7.17256 15.9278 5.9249 14.716C4.67725 13.5043 3.95469 12.0367 3.75722 10.3133C3.72131 10.08 3.78863 9.87801 3.95918 9.70747C4.12972 9.53692 4.34065 9.45165 4.59198 9.45165C4.78945 9.45165 4.95999 9.52346 5.10361 9.66708C5.24722 9.81069 5.33698 9.98123 5.37289 10.1787C5.57036 11.6149 6.21662 12.8176 7.31169 13.787C8.40675 14.7564 9.71723 15.2411 11.2431 15.2411C11.674 15.2411 12.0824 15.2052 12.4684 15.1334C12.8543 15.0616 13.2448 14.927 13.6397 14.7295L0.20275 1.31946C0.0591355 1.17585 -0.00818393 1.0053 0.000791994 0.807834C0.00976792 0.610363 0.0860633 0.439821 0.229678 0.296206C0.373293 0.152591 0.543836 0.0807834 0.741306 0.0807834C0.938776 0.0807834 1.10932 0.152591 1.25293 0.296206L21.5834 20.6267C21.745 20.7883 21.8258 20.9767 21.8258 21.1922C21.8258 21.4076 21.745 21.5961 21.5834 21.7577C21.4218 21.9192 21.2333 22 21.0179 22C20.8025 22 20.614 21.9192 20.4524 21.7577Z" fill="inherit"/>
  </symbol>
  <symbol xmlns="http://www.w3.org/2000/svg"  viewBox="0 0 18 20" id="voice-indicator">
    <path d="M4.74949 15.1394C4.90598 15.2959 5.10454 15.3722 5.33333 15.3722C5.56213 15.3722 5.76069 15.2959 5.91718 15.1394C6.07367 14.9829 6.15 14.7844 6.15 14.5556V5.22222C6.15 4.99342 6.07367 4.79487 5.91718 4.63838C5.76069 4.48189 5.56213 4.40556 5.33333 4.40556C5.10454 4.40556 4.90598 4.48189 4.74949 4.63838C4.593 4.79487 4.51667 4.99342 4.51667 5.22222V14.5556C4.51667 14.7844 4.593 14.9829 4.74949 15.1394ZM8.41616 18.695C8.57265 18.8514 8.7712 18.9278 9 18.9278C9.2288 18.9278 9.42736 18.8514 9.58384 18.695C9.74033 18.5385 9.81667 18.3399 9.81667 18.1111V1.66667C9.81667 1.43787 9.74033 1.23931 9.58384 1.08282C9.42736 0.926334 9.2288 0.85 9 0.85C8.7712 0.85 8.57265 0.926334 8.41616 1.08282C8.25967 1.23931 8.18333 1.43787 8.18333 1.66667V18.1111C8.18333 18.3399 8.25967 18.5385 8.41616 18.695ZM1.08282 11.5838C1.23931 11.7403 1.43787 11.8167 1.66667 11.8167C1.89546 11.8167 2.09402 11.7403 2.25051 11.5838C2.407 11.4274 2.48333 11.2288 2.48333 11V8.77778C2.48333 8.54898 2.407 8.35042 2.25051 8.19393C2.09402 8.03744 1.89546 7.96111 1.66667 7.96111C1.43787 7.96111 1.23931 8.03744 1.08282 8.19393C0.926334 8.35042 0.85 8.54898 0.85 8.77778V11C0.85 11.2288 0.926334 11.4274 1.08282 11.5838ZM12.0828 15.1394C12.2393 15.2959 12.4379 15.3722 12.6667 15.3722C12.8955 15.3722 13.094 15.2959 13.2505 15.1394C13.407 14.9829 13.4833 14.7844 13.4833 14.5556V5.22222C13.4833 4.99342 13.407 4.79487 13.2505 4.63838C13.094 4.48189 12.8955 4.40556 12.6667 4.40556C12.4379 4.40556 12.2393 4.48189 12.0828 4.63838C11.9263 4.79487 11.85 4.99342 11.85 5.22222V14.5556C11.85 14.7844 11.9263 14.9829 12.0828 15.1394ZM15.7495 11.5838C15.906 11.7403 16.1045 11.8167 16.3333 11.8167C16.5621 11.8167 16.7607 11.7403 16.9172 11.5838C17.0737 11.4274 17.15 11.2288 17.15 11V8.77778C17.15 8.54898 17.0737 8.35042 16.9172 8.19393C16.7607 8.03744 16.5621 7.96111 16.3333 7.96111C16.1045 7.96111 15.906 8.03744 15.7495 8.19393C15.593 8.35042 15.5167 8.54898 15.5167 8.77778V11C15.5167 11.2288 15.593 11.4274 15.7495 11.5838Z" fill="#003935" stroke="#003935" stroke-width="0.3"/>
  </symbol>
  <symbol xmlns="http://www.w3.org/2000/svg"  viewBox="0 0 26 20" id="camera">
    <path d="M1.95 20C1.43 20 0.975 19.8125 0.585 19.4375C0.195 19.0625 0 18.625 0 18.125V1.875C0 1.375 0.195 0.9375 0.585 0.5625C0.975 0.1875 1.43 0 1.95 0H18.85C19.37 0 19.825 0.1875 20.215 0.5625C20.605 0.9375 20.8 1.375 20.8 1.875V8.59375L25.155 4.40625C25.3067 4.26042 25.4854 4.22396 25.6912 4.29688C25.8971 4.36979 26 4.51042 26 4.71875V15.2812C26 15.4896 25.8971 15.6302 25.6912 15.7031C25.4854 15.776 25.3067 15.7396 25.155 15.5938L20.8 11.4062V18.125C20.8 18.625 20.605 19.0625 20.215 19.4375C19.825 19.8125 19.37 20 18.85 20H1.95ZM1.95 18.125H18.85V1.875H1.95V18.125ZM1.95 18.125V1.875V18.125Z"/>
  </symbol>
  <symbol xmlns="http://www.w3.org/2000/svg" viewBox="0 0 26 26" id="camera-off">
    <path d="M25.1846 17.7201L20.9819 13.5175V16.9988L19.1001 15.117V3.95175H7.93486L6.05308 2.06996H19.1001C19.6019 2.06996 20.041 2.25814 20.4174 2.6345C20.7937 3.01086 20.9819 3.44994 20.9819 3.95175V10.6948L25.1846 6.49216C25.3309 6.3458 25.5034 6.30921 25.7021 6.38239C25.9007 6.45557 26 6.5967 26 6.80579V17.4065C26 17.6156 25.9007 17.7567 25.7021 17.8299C25.5034 17.9031 25.3309 17.8665 25.1846 17.7201ZM24.3378 25.655L20.3546 21.6719C20.1874 21.8183 19.994 21.9333 19.7744 22.0169C19.5549 22.1005 19.3301 22.1423 19.1001 22.1423H2.79131C2.28951 22.1423 1.85042 21.9542 1.47407 21.5778C1.09771 21.2014 0.90953 20.7624 0.90953 20.2606V3.95175C0.90953 3.70084 0.956574 3.47085 1.05066 3.26176C1.14475 3.05267 1.25452 2.8645 1.37998 2.69723L0.250905 1.56815C0.083635 1.40088 0 1.1918 0 0.940893C0 0.689988 0.0940893 0.470446 0.282268 0.282268C0.470446 0.0940894 0.689988 0 0.940893 0C1.1918 0 1.41134 0.0940894 1.59952 0.282268L25.6864 24.3691C25.8536 24.5364 25.9373 24.7455 25.9373 24.9964C25.9373 25.2473 25.8432 25.4668 25.655 25.655C25.4668 25.8432 25.2473 25.9373 24.9964 25.9373C24.7455 25.9373 24.5259 25.8432 24.3378 25.655ZM2.79131 20.2606H18.9433L2.79131 4.10856V20.2606Z" fill="white"/>
  </symbol>
  <symbol xmlns="http://www.w3.org/2000/svg" viewBox="0 0 4 22" id="option">
  <path d="M1.65 22C1.19167 22 0.802083 21.8396 0.481249 21.5187C0.160416 21.1979 0 20.8083 0 20.35C0 19.8917 0.160416 19.5021 0.481249 19.1813C0.802083 18.8604 1.19167 18.7 1.65 18.7C2.10833 18.7 2.49792 18.8604 2.81875 19.1813C3.13958 19.5021 3.3 19.8917 3.3 20.35C3.3 20.8083 3.13958 21.1979 2.81875 21.5187C2.49792 21.8396 2.10833 22 1.65 22ZM1.65 12.65C1.19167 12.65 0.802083 12.4896 0.481249 12.1688C0.160416 11.8479 0 11.4583 0 11C0 10.5417 0.160416 10.1521 0.481249 9.83125C0.802083 9.51042 1.19167 9.35 1.65 9.35C2.10833 9.35 2.49792 9.51042 2.81875 9.83125C3.13958 10.1521 3.3 10.5417 3.3 11C3.3 11.4583 3.13958 11.8479 2.81875 12.1688C2.49792 12.4896 2.10833 12.65 1.65 12.65ZM1.65 3.3C1.19167 3.3 0.802083 3.13958 0.481249 2.81875C0.160416 2.49792 0 2.10833 0 1.65C0 1.19167 0.160416 0.802083 0.481249 0.48125C0.802083 0.160417 1.19167 0 1.65 0C2.10833 0 2.49792 0.160417 2.81875 0.48125C3.13958 0.802083 3.3 1.19167 3.3 1.65C3.3 2.10833 3.13958 2.49792 2.81875 2.81875C2.49792 3.13958 2.10833 3.3 1.65 3.3Z"/>
  </symbol>
  <symbol xmlns="http://www.w3.org/2000/svg" viewBox="0 0 28 22" id="share-screen-off">
  <path d="M10.2773 13.8417C10.553 13.8417 10.7811 13.7551 10.9614 13.5819C11.1417 13.4088 11.2318 13.1898 11.2318 12.925V11.0917C11.2318 10.6028 11.4015 10.1954 11.7409 9.86944C12.0803 9.54352 12.5045 9.38056 13.0136 9.38056H15.5909V10.4194C15.5909 10.6231 15.6917 10.7606 15.8932 10.8319C16.0947 10.9032 16.2697 10.8676 16.4182 10.725L18.4227 8.8C18.4439 8.77963 18.497 8.66759 18.5818 8.46389C18.5818 8.42315 18.5288 8.31111 18.4227 8.12778L16.4182 6.20278C16.2697 6.06018 16.0947 6.02454 15.8932 6.09583C15.6917 6.16713 15.5909 6.30463 15.5909 6.50833V7.54722H13.0136C11.9955 7.54722 11.1258 7.89352 10.4045 8.58611C9.68333 9.2787 9.32273 10.1139 9.32273 11.0917V12.925C9.32273 13.1898 9.41288 13.4088 9.59318 13.5819C9.77349 13.7551 10.0015 13.8417 10.2773 13.8417ZM3.18182 18.3333C2.65152 18.3333 2.20076 18.1551 1.82955 17.7986C1.45833 17.4421 1.27273 17.0093 1.27273 16.5V1.83333C1.27273 1.32407 1.45833 0.891204 1.82955 0.534722C2.20076 0.178241 2.65152 0 3.18182 0H24.8182C25.3485 0 25.7992 0.178241 26.1705 0.534722C26.5417 0.891204 26.7273 1.32407 26.7273 1.83333V16.5C26.7273 17.0093 26.5417 17.4421 26.1705 17.7986C25.7992 18.1551 25.3485 18.3333 24.8182 18.3333H3.18182ZM3.18182 16.5H24.8182V1.83333H3.18182V16.5ZM0.954545 22C0.678788 22 0.450758 21.9134 0.270454 21.7403C0.0901515 21.5671 0 21.3481 0 21.0833C0 20.8185 0.0901515 20.5995 0.270454 20.4264C0.450758 20.2532 0.678788 20.1667 0.954545 20.1667H27.0455C27.3212 20.1667 27.5492 20.2532 27.7295 20.4264C27.9098 20.5995 28 20.8185 28 21.0833C28 21.3481 27.9098 21.5671 27.7295 21.7403C27.5492 21.9134 27.3212 22 27.0455 22H0.954545ZM3.18182 1.83333V16.5V1.83333Z"/>
  </symbol>
  <symbol xmlns="http://www.w3.org/2000/svg" viewBox="0 0 24 22" id="message-off">
  <path d="M5.51367 13.9583H12.8846C13.1167 13.9583 13.315 13.8761 13.4795 13.7116C13.6439 13.5472 13.7261 13.3392 13.7261 13.0877C13.7261 12.8362 13.6439 12.6282 13.4795 12.4638C13.315 12.2993 13.107 12.2171 12.8555 12.2171H5.48465C5.25249 12.2171 5.05419 12.2993 4.88975 12.4638C4.72531 12.6282 4.64309 12.8362 4.64309 13.0877C4.64309 13.3392 4.72531 13.5472 4.88975 13.7116C5.05419 13.8761 5.26217 13.9583 5.51367 13.9583ZM5.51367 10.1858H17.7308C17.9629 10.1858 18.1612 10.1036 18.3257 9.93911C18.4901 9.77466 18.5723 9.56669 18.5723 9.31519C18.5723 9.06369 18.4901 8.85572 18.3257 8.69128C18.1612 8.52684 17.9533 8.44461 17.7018 8.44461H5.48465C5.25249 8.44461 5.05419 8.52684 4.88975 8.69128C4.72531 8.85572 4.64309 9.06369 4.64309 9.31519C4.64309 9.56669 4.72531 9.77466 4.88975 9.93911C5.05419 10.1036 5.26217 10.1858 5.51367 10.1858ZM5.51367 6.41326H17.7308C17.9629 6.41326 18.1612 6.33104 18.3257 6.1666C18.4901 6.00216 18.5723 5.79419 18.5723 5.54269C18.5723 5.29118 18.4901 5.08321 18.3257 4.91877C18.1612 4.75433 17.9533 4.67211 17.7018 4.67211H5.48465C5.25249 4.67211 5.05419 4.75433 4.88975 4.91877C4.72531 5.08321 4.64309 5.29118 4.64309 5.54269C4.64309 5.79419 4.72531 6.00216 4.88975 6.1666C5.05419 6.33104 5.26217 6.41326 5.51367 6.41326ZM0 21.126V1.74116C0 1.2962 0.174116 0.894762 0.522347 0.536857C0.870579 0.178952 1.27685 0 1.74116 0H21.4743C21.9192 0 22.3207 0.178952 22.6786 0.536857C23.0365 0.894762 23.2154 1.2962 23.2154 1.74116V16.8312C23.2154 17.2762 23.0365 17.6776 22.6786 18.0355C22.3207 18.3934 21.9192 18.5723 21.4743 18.5723H4.64309L1.47998 21.7355C1.20914 22.0063 0.894762 22.0692 0.536857 21.9241C0.178952 21.779 0 21.513 0 21.126ZM1.74116 19.0076L3.9176 16.8312H21.4743V1.74116H1.74116V19.0076ZM1.74116 1.74116V16.8312V19.0076V1.74116Z"/>
  </symbol>
  <symbol xmlns="http://www.w3.org/2000/svg" viewBox="0 0 28 11" id="end-call">
  <path d="M14 0C16.6337 0 19.1524 0.527778 21.5561 1.58333C23.9598 2.63889 26.0187 4.16997 27.7327 6.17657C27.8999 6.38559 27.9887 6.61551 27.9992 6.86634C28.0096 7.11716 27.9208 7.33663 27.7327 7.52475L24.7855 10.4719C24.6183 10.6392 24.3779 10.7332 24.0644 10.7541C23.7508 10.775 23.5 10.7123 23.3119 10.566L19.3614 7.61881V2.79043C18.4835 2.456 17.5899 2.22085 16.6807 2.08498C15.7715 1.94912 14.8779 1.88119 14 1.88119C13.1221 1.88119 12.2285 1.94912 11.3193 2.08498C10.4101 2.22085 9.5165 2.456 8.63861 2.79043V7.61881L4.68812 10.566C4.43729 10.7541 4.18124 10.8377 3.91997 10.8168C3.65869 10.7959 3.42354 10.681 3.21452 10.4719L0.267327 7.52475C0.0792079 7.33663 -0.00962596 7.11716 0.000825083 6.86634C0.0112761 6.61551 0.10011 6.38559 0.267327 6.17657C1.9813 4.16997 4.04015 2.63889 6.44389 1.58333C8.84763 0.527778 11.3663 0 14 0ZM3.99835 8.62211L6.60066 6.70957V3.57426C5.78548 3.9714 5.01733 4.44692 4.2962 5.00082C3.57508 5.55473 2.88009 6.14521 2.21122 6.77228L3.99835 8.62211ZM23.9703 8.59076L25.7888 6.77228C25.1199 6.08251 24.404 5.47112 23.6411 4.93812C22.8782 4.40512 22.0787 3.90869 21.2426 3.44884V6.52145L23.9703 8.59076Z" fill="white"/>
  </symbol>
  <symbol xmlns="http://www.w3.org/2000/svg"  viewBox="0 0 14 18"  id="pin">
<path d="M8.8002 1.8V6.3C8.8002 7.308 9.1332 8.244 9.7002 9H4.3002C4.8852 8.226 5.2002 7.29 5.2002 6.3V1.8H8.8002ZM11.5002 0H2.5002C2.0052 0 1.6002 0.405 1.6002 0.9C1.6002 1.395 2.0052 1.8 2.5002 1.8H3.4002V6.3C3.4002 7.794 2.1942 9 0.700195 9V10.8H6.0732V17.1L6.9732 18L7.8732 17.1V10.8H13.3002V9C11.8062 9 10.6002 7.794 10.6002 6.3V1.8H11.5002C11.9952 1.8 12.4002 1.395 12.4002 0.9C12.4002 0.405 11.9952 0 11.5002 0Z" fill="#003935"/>
</symbol>
<symbol xmlns="http://www.w3.org/2000/svg" viewBox="0 0 24 24" id="unpin" fill="#000000">
<g><rect fill="none" height="24" width="24"/><rect fill="none" height="24" width="24"/></g><g><path d="M19,12.87c0-0.47-0.34-0.85-0.8-0.98C16.93,11.54,16,10.38,16,9V4l1,0 c0.55,0,1-0.45,1-1c0-0.55-0.45-1-1-1H7C6.45,2,6,2.45,6,3c0,0.55,0.45,1,1,1l1,0v5c0,1.38-0.93,2.54-2.2,2.89 C5.34,12.02,5,12.4,5,12.87V13c0,0.55,0.45,1,1,1h4.98L11,21c0,0.55,0.45,1,1,1c0.55,0,1-0.45,1-1l-0.02-7H18c0.55,0,1-0.45,1-1 V12.87z" fill-rule="evenodd"/></g>
</symbol>
<symbol xmlns="http://www.w3.org/2000/svg" viewBox="0 0 20 20" id="close">
<path d="M10 11.6092L1.95402 19.6552C1.72414 19.8851 1.45594 20 1.14943 20C0.842912 20 0.574713 19.8851 0.344827 19.6552C0.114942 19.4253 0 19.1571 0 18.8506C0 18.5441 0.114942 18.2759 0.344827 18.046L8.39081 10L0.344827 1.95402C0.114942 1.72414 0 1.45594 0 1.14943C0 0.842912 0.114942 0.574713 0.344827 0.344827C0.574713 0.114942 0.842912 0 1.14943 0C1.45594 0 1.72414 0.114942 1.95402 0.344827L10 8.39081L18.046 0.344827C18.2759 0.114942 18.5441 0 18.8506 0C19.1571 0 19.4253 0.114942 19.6552 0.344827C19.8851 0.574713 20 0.842912 20 1.14943C20 1.45594 19.8851 1.72414 19.6552 1.95402L11.6092 10L19.6552 18.046C19.8851 18.2759 20 18.5441 20 18.8506C20 19.1571 19.8851 19.4253 19.6552 19.6552C19.4253 19.8851 19.1571 20 18.8506 20C18.5441 20 18.2759 19.8851 18.046 19.6552L10 11.6092Z" fill="white"/>
</symbol>
<symbol xmlns="http://www.w3.org/2000/svg" viewBox="0 0 20 17" id="send-message">
<path d="M0 16.177V0.823047C0 0.525274 0.126405 0.297291 0.379214 0.1391C0.632023 -0.0190921 0.898877 -0.0423556 1.17978 0.0693092L19.4944 7.71835C19.8315 7.86723 20 8.12778 20 8.5C20 8.87222 19.8315 9.13277 19.4944 9.28165L1.17978 16.9307C0.898877 17.0424 0.632023 17.0191 0.379214 16.8609C0.126405 16.7027 0 16.4747 0 16.177ZM1.68539 14.837L16.9663 8.5L1.68539 2.07928V6.7692L8.48315 8.5L1.68539 10.175V14.837ZM1.68539 8.5V2.07928V6.7692V10.175V14.837V8.5Z" fill="#CDFFFB"/>
</symbol>
<symbol xmlns="http://www.w3.org/2000/svg" viewBox="0 0 22 22" id="report">
<path d="M7.18056 22C6.93611 22 6.69676 21.9491 6.4625 21.8472C6.22824 21.7454 6.02963 21.613 5.86667 21.45L0.55 16.1333C0.387037 15.9704 0.25463 15.7718 0.152778 15.5375C0.0509259 15.3032 0 15.0639 0 14.8194V7.18056C0 6.93611 0.0509259 6.69676 0.152778 6.4625C0.25463 6.22824 0.387037 6.02963 0.55 5.86667L5.86667 0.55C6.02963 0.387037 6.22824 0.25463 6.4625 0.152778C6.69676 0.0509259 6.93611 0 7.18056 0H14.8194C15.0639 0 15.3032 0.0509259 15.5375 0.152778C15.7718 0.25463 15.9704 0.387037 16.1333 0.55L21.45 5.86667C21.613 6.02963 21.7454 6.22824 21.8472 6.4625C21.9491 6.69676 22 6.93611 22 7.18056V14.8194C22 15.0639 21.9491 15.3032 21.8472 15.5375C21.7454 15.7718 21.613 15.9704 21.45 16.1333L16.1333 21.45C15.9704 21.613 15.7718 21.7454 15.5375 21.8472C15.3032 21.9491 15.0639 22 14.8194 22H7.18056ZM11 17.0806C11.2852 17.0806 11.5347 16.9736 11.7486 16.7597C11.9625 16.5458 12.0694 16.2963 12.0694 16.0111C12.0694 15.7259 11.9625 15.4764 11.7486 15.2625C11.5347 15.0486 11.2852 14.9417 11 14.9417C10.7148 14.9417 10.4653 15.0486 10.2514 15.2625C10.0375 15.4764 9.93056 15.7259 9.93056 16.0111C9.93056 16.2963 10.0375 16.5458 10.2514 16.7597C10.4653 16.9736 10.7148 17.0806 11 17.0806ZM11 12.6806C11.2648 12.6806 11.4838 12.594 11.6569 12.4208C11.8301 12.2477 11.9167 12.0287 11.9167 11.7639V5.56111C11.9167 5.2963 11.8301 5.07731 11.6569 4.90417C11.4838 4.73102 11.2648 4.64444 11 4.64444C10.7352 4.64444 10.5162 4.73102 10.3431 4.90417C10.1699 5.07731 10.0833 5.2963 10.0833 5.56111V11.7639C10.0833 12.0287 10.1699 12.2477 10.3431 12.4208C10.5162 12.594 10.7352 12.6806 11 12.6806ZM7.18056 20.1667H14.8194L20.1667 14.8194V7.18056L14.8194 1.83333H7.18056L1.83333 7.18056V14.8194L7.18056 20.1667Z"/>
</symbol>
</svg>
